<svg width="720" height="720" style="background-color:#870023;max-width:960px;max-height:960px" xmlns="http://www.w3.org/2000/svg">

<path d="m0 720 22.5-22.5L0 675Zm0-45 22.5 22.5L45 675Zm45 0-22.5-22.5L0 675Zm-45 0 22.5-22.5L0 630Zm0-45 22.5 22.5L45 630Zm45 0-22.5 22.5L45 675Zm0 45 22.5-22.5L45 630Zm0-45 22.5 22.5L90 630Zm45 0-22.5-22.5L45 630Zm-45 0 22.5-22.5L45 585Zm0-45-22.5 22.5L45 630Zm0 45-22.5-22.5L0 630Zm-45 0 22.5-22.5L0 585Zm0-45 22.5 22.5L45 585Zm45 0-22.5-22.5L0 585Zm-45 0 22.5-22.5L0 540Zm0-45 22.5 22.5L45 540Zm45 0-22.5 22.5L45 585Zm0 45 22.5-22.5L45 540Zm0-45 22.5 22.5L90 540Zm45 0-22.5 22.5L90 585Zm0 45-22.5-22.5L45 585Zm-45 0 22.5 22.5L90 585Zm45 0-22.5 22.5L90 630Zm0 45 22.5-22.5L90 585Zm0-45 22.5 22.5L135 585Zm45 0-22.5-22.5L90 585Zm-45 0 22.5-22.5L90 540Zm0-45 22.5 22.5L135 540Zm45 0-22.5 22.5L135 585Zm0 45 22.5-22.5L135 540Zm0-45 22.5 22.5L180 540Zm45 0-22.5-22.5L135 540Zm-45 0 22.5-22.5L135 495Zm0-45-22.5 22.5L135 540Zm0 45-22.5-22.5L90 540Zm-45 0 22.5-22.5L90 495Zm0-45 22.5 22.5L135 495Zm45 0-22.5-22.5L90 495Zm-45 0 22.5-22.5L90 450Zm0-45-22.5 22.5L90 495Zm0 45-22.5-22.5L45 495Zm-45 0 22.5 22.5L90 495Zm45 0-22.5 22.5L90 540Zm0 45-22.5-22.5L45 540Zm-45 0 22.5-22.5L45 495Zm0-45-22.5 22.5L45 540Zm0 45-22.5-22.5L0 540Zm-45 0 22.5-22.5L0 495Zm0-45 22.5 22.5L45 495Zm45 0-22.5-22.5L0 495Zm-45 0 22.5-22.5L0 450Zm0-45 22.5 22.5L45 450Zm45 0-22.5 22.5L45 495Zm0 45 22.5-22.5L45 450Zm0-45 22.5 22.5L90 450Zm45 0-22.5-22.5L45 450Zm-45 0 22.5-22.5L45 405Zm0-45-22.5 22.5L45 450Zm0 45-22.5-22.5L0 450Zm-45 0 22.5-22.5L0 405Zm0-45 22.5 22.5L45 405Zm45 0-22.5-22.5L0 405Zm-45 0 22.5-22.5L0 360Zm0-45 22.5 22.5L45 360Zm45 0-22.5 22.5L45 405Zm0 45 22.5-22.5L45 360Zm0-45 22.5 22.5L90 360Zm45 0-22.5 22.5L90 405Zm0 45-22.5-22.5L45 405Zm-45 0 22.5 22.5L90 405Zm45 0-22.5 22.5L90 450Zm0 45 22.5-22.5L90 405Zm0-45 22.5 22.5L135 405Zm45 0-22.5-22.5L90 405Zm-45 0 22.5-22.5L90 360Zm0-45 22.5 22.5L135 360Zm45 0-22.5 22.5L135 405Zm0 45 22.5-22.5L135 360Zm0-45 22.5 22.5L180 360Zm45 0-22.5 22.5L180 405Zm0 45-22.5-22.5L135 405Zm-45 0 22.5 22.5L180 405Zm45 0-22.5 22.5L180 450Zm0 45-22.5-22.5L135 450Zm-45 0 22.5-22.5L135 405Zm0-45-22.5 22.5L135 450Zm0 45-22.5-22.5L90 450Zm-45 0 22.5 22.5L135 450Zm45 0-22.5 22.5L135 495Zm0 45 22.5-22.5L135 450Zm0-45 22.5 22.5L180 450Zm45 0-22.5 22.5L180 495Zm0 45-22.5-22.5L135 495Zm-45 0 22.5 22.5L180 495Zm45 0-22.5 22.5L180 540Zm0 45 22.5-22.5L180 495Zm0-45 22.5 22.5L225 495Zm45 0-22.5-22.5L180 495Zm-45 0 22.5-22.5L180 450Zm0-45 22.5 22.5L225 450Zm45 0-22.5 22.5L225 495Zm0 45 22.5-22.5L225 450Zm0-45 22.5 22.5L270 450Zm45 0-22.5-22.5L225 450Zm-45 0 22.5-22.5L225 405Zm0-45-22.5 22.5L225 450Zm0 45-22.5-22.5L180 450Zm-45 0 22.5-22.5L180 405Zm0-45 22.5 22.5L225 405Zm45 0-22.5-22.5L180 405Zm-45 0 22.5-22.5L180 360Zm0-45 22.5 22.5L225 360Zm45 0-22.5 22.5L225 405Zm0 45 22.5-22.5L225 360Zm0-45 22.5 22.5L270 360Zm45 0-22.5 22.5L270 405Zm0 45-22.5-22.5L225 405Zm-45 0 22.5 22.5L270 405Zm45 0-22.5 22.5L270 450Zm0 45 22.5-22.5L270 405Zm0-45 22.5 22.5L315 405Zm45 0-22.5-22.5L270 405Zm-45 0 22.5-22.5L270 360Zm0-45 22.5 22.5L315 360Zm45 0-22.5 22.5L315 405Zm0 45 22.5-22.5L315 360Zm0-45 22.5 22.5L360 360Zm45 0-22.5-22.5L315 360Zm-45 0 22.5-22.5L315 315Zm0-45-22.5 22.5L315 360Zm0 45-22.5-22.5L270 360Zm-45 0 22.5-22.5L270 315Zm0-45 22.5 22.5L315 315Zm45 0-22.5-22.5L270 315Zm-45 0 22.5-22.5L270 270Zm0-45-22.5 22.5L270 315Zm0 45-22.5-22.5L225 315Zm-45 0 22.5 22.5L270 315Zm45 0-22.5 22.5L270 360Zm0 45-22.5-22.5L225 360Zm-45 0 22.5-22.5L225 315Zm0-45-22.5 22.5L225 360Zm0 45-22.5-22.5L180 360Zm-45 0 22.5-22.5L180 315Zm0-45 22.5 22.5L225 315Zm45 0-22.5-22.5L180 315Zm-45 0 22.5-22.5L180 270Zm0-45 22.5 22.5L225 270Zm45 0-22.5 22.5L225 315Zm0 45 22.5-22.5L225 270Zm0-45 22.5 22.5L270 270Zm45 0-22.5-22.5L225 270Zm-45 0 22.5-22.5L225 225Zm0-45-22.5 22.5L225 270Zm0 45-22.5-22.5L180 270Zm-45 0 22.5-22.5L180 225Zm0-45 22.5 22.5L225 225Zm45 0-22.5-22.5L180 225Zm-45 0 22.5-22.5L180 180Zm0-45-22.5 22.5L180 225Zm0 45-22.5-22.5L135 225Zm-45 0 22.5 22.5L180 225Zm45 0-22.5 22.5L180 270Zm0 45-22.5-22.5L135 270Zm-45 0 22.5-22.5L135 225Zm0-45-22.5 22.5L135 270Zm0 45-22.5-22.5L90 270Zm-45 0 22.5 22.5L135 270Zm45 0-22.5 22.5L135 315Zm0 45 22.5-22.5L135 270Zm0-45 22.5 22.5L180 270Zm45 0-22.5 22.5L180 315Zm0 45-22.5-22.5L135 315Zm-45 0 22.5 22.5L180 315Zm45 0-22.5 22.5L180 360Zm0 45-22.5-22.5L135 360Zm-45 0 22.5-22.5L135 315Zm0-45-22.5 22.5L135 360Zm0 45-22.5-22.5L90 360Zm-45 0 22.5-22.5L90 315Zm0-45 22.5 22.5L135 315Zm45 0-22.5-22.5L90 315Zm-45 0 22.5-22.5L90 270Zm0-45-22.5 22.5L90 315Zm0 45-22.5-22.5L45 315Zm-45 0 22.5 22.5L90 315Zm45 0-22.5 22.5L90 360Zm0 45-22.5-22.5L45 360Zm-45 0 22.5-22.5L45 315Zm0-45-22.5 22.5L45 360Zm0 45-22.5-22.5L0 360Zm-45 0 22.5-22.5L0 315Zm0-45 22.5 22.5L45 315Zm45 0-22.5-22.5L0 315Zm-45 0 22.5-22.5L0 270Zm0-45 22.5 22.5L45 270Zm45 0-22.5 22.5L45 315Zm0 45 22.5-22.5L45 270Zm0-45 22.5 22.5L90 270Zm45 0-22.5-22.5L45 270Zm-45 0 22.5-22.5L45 225Zm0-45-22.5 22.5L45 270Zm0 45-22.5-22.5L0 270Zm-45 0 22.5-22.5L0 225Zm0-45 22.5 22.5L45 225Zm45 0-22.5-22.5L0 225Zm-45 0 22.5-22.5L0 180Zm0-45 22.5 22.5L45 180Zm45 0-22.5 22.5L45 225Zm0 45 22.5-22.5L45 180Zm0-45 22.5 22.5L90 180Zm45 0-22.5 22.5L90 225Zm0 45-22.5-22.5L45 225Zm-45 0 22.5 22.5L90 225Zm45 0-22.5 22.5L90 270Zm0 45 22.5-22.5L90 225Zm0-45 22.5 22.5L135 225Zm45 0-22.5-22.5L90 225Zm-45 0 22.5-22.5L90 180Zm0-45 22.5 22.5L135 180Zm45 0-22.5 22.5L135 225Zm0 45 22.5-22.5L135 180Zm0-45 22.5 22.5L180 180Zm45 0-22.5-22.5L135 180Zm-45 0 22.5-22.5L135 135Zm0-45-22.5 22.5L135 180Zm0 45-22.5-22.5L90 180Zm-45 0 22.5-22.5L90 135Zm0-45 22.5 22.5L135 135Zm45 0-22.5-22.5L90 135Zm-45 0 22.5-22.5L90 90Zm0-45-22.5 22.5L90 135Zm0 45-22.5-22.5L45 135Zm-45 0 22.5 22.5L90 135Zm45 0-22.5 22.5L90 180Zm0 45-22.5-22.5L45 180Zm-45 0 22.5-22.5L45 135Zm0-45-22.5 22.5L45 180Zm0 45-22.5-22.5L0 180Zm-45 0 22.5-22.5L0 135Zm0-45 22.5 22.5L45 135Zm45 0-22.5-22.5L0 135Zm-45 0 22.5-22.5L0 90Zm0-45 22.5 22.5L45 90Zm45 0-22.5 22.5L45 135Zm0 45 22.5-22.5L45 90Zm0-45 22.5 22.5L90 90Zm45 0L67.5 67.5 45 90Zm-45 0 22.5-22.5L45 45Zm0-45L22.5 67.5 45 90Zm0 45L22.5 67.5 0 90ZM0 90l22.5-22.5L0 45Zm0-45 22.5 22.5L45 45Zm45 0L22.5 22.5 0 45ZM0 45l22.5-22.5L0 0ZM0 0l22.5 22.5L45 0Zm45 0L22.5 22.5 45 45Zm0 45 22.5-22.5L45 0Zm0-45 22.5 22.5L90 0Zm45 0L67.5 22.5 90 45Zm0 45L67.5 22.5 45 45Zm-45 0 22.5 22.5L90 45Zm45 0L67.5 67.5 90 90Zm0 45 22.5-22.5L90 45Zm0-45 22.5 22.5L135 45Zm45 0-22.5-22.5L90 45Zm-45 0 22.5-22.5L90 0Zm0-45 22.5 22.5L135 0Zm45 0-22.5 22.5L135 45Zm0 45 22.5-22.5L135 0Zm0-45 22.5 22.5L180 0Zm45 0-22.5 22.5L180 45Zm0 45-22.5-22.5L135 45Zm-45 0 22.5 22.5L180 45Zm45 0-22.5 22.5L180 90Zm0 45-22.5-22.5L135 90Zm-45 0 22.5-22.5L135 45Zm0-45-22.5 22.5L135 90Zm0 45-22.5-22.5L90 90Zm-45 0 22.5 22.5L135 90Zm45 0-22.5 22.5L135 135Zm0 45 22.5-22.5L135 90Zm0-45 22.5 22.5L180 90Zm45 0-22.5 22.5L180 135Zm0 45-22.5-22.5L135 135Zm-45 0 22.5 22.5L180 135Zm45 0-22.5 22.5L180 180Zm0 45 22.5-22.5L180 135Zm0-45 22.5 22.5L225 135Zm45 0-22.5-22.5L180 135Zm-45 0 22.5-22.5L180 90Zm0-45 22.5 22.5L225 90Zm45 0-22.5 22.5L225 135Zm0 45 22.5-22.5L225 90Zm0-45 22.5 22.5L270 90Zm45 0-22.5-22.5L225 90Zm-45 0 22.5-22.5L225 45Zm0-45-22.5 22.5L225 90Zm0 45-22.5-22.5L180 90Zm-45 0 22.5-22.5L180 45Zm0-45 22.5 22.5L225 45Zm45 0-22.5-22.5L180 45Zm-45 0 22.5-22.5L180 0Zm0-45 22.5 22.5L225 0Zm45 0-22.5 22.5L225 45Zm0 45 22.5-22.5L225 0Zm0-45 22.5 22.5L270 0Zm45 0-22.5 22.5L270 45Zm0 45-22.5-22.5L225 45Zm-45 0 22.5 22.5L270 45Zm45 0-22.5 22.5L270 90Zm0 45 22.5-22.5L270 45Zm0-45 22.5 22.5L315 45Zm45 0-22.5-22.5L270 45Zm-45 0 22.5-22.5L270 0Zm0-45 22.5 22.5L315 0Zm45 0-22.5 22.5L315 45Zm0 45 22.5-22.5L315 0Zm0-45 22.5 22.5L360 0Zm45 0-22.5 22.5L360 45Zm0 45-22.5-22.5L315 45Zm-45 0 22.5 22.5L360 45Zm45 0-22.5 22.5L360 90Zm0 45-22.5-22.5L315 90Zm-45 0 22.5-22.5L315 45Zm0-45-22.5 22.5L315 90Zm0 45-22.5-22.5L270 90Zm-45 0 22.5 22.5L315 90Zm45 0-22.5 22.5L315 135Zm0 45 22.5-22.5L315 90Zm0-45 22.5 22.5L360 90Zm45 0-22.5 22.5L360 135Zm0 45-22.5-22.5L315 135Zm-45 0 22.5 22.5L360 135Zm45 0-22.5 22.5L360 180Zm0 45-22.5-22.5L315 180Zm-45 0 22.5-22.5L315 135Zm0-45-22.5 22.5L315 180Zm0 45-22.5-22.5L270 180Zm-45 0 22.5-22.5L270 135Zm0-45 22.5 22.5L315 135Zm45 0-22.5-22.5L270 135Zm-45 0 22.5-22.5L270 90Zm0-45-22.5 22.5L270 135Zm0 45-22.5-22.5L225 135Zm-45 0 22.5 22.5L270 135Zm45 0-22.5 22.5L270 180Zm0 45-22.5-22.5L225 180Zm-45 0 22.5-22.5L225 135Zm0-45-22.5 22.5L225 180Zm0 45-22.5-22.5L180 180Zm-45 0 22.5 22.5L225 180Zm45 0-22.5 22.5L225 225Zm0 45 22.5-22.5L225 180Zm0-45 22.5 22.5L270 180Zm45 0-22.5 22.5L270 225Zm0 45-22.5-22.5L225 225Zm-45 0 22.5 22.5L270 225Zm45 0-22.5 22.5L270 270Zm0 45 22.5-22.5L270 225Zm0-45 22.5 22.5L315 225Zm45 0-22.5-22.5L270 225Zm-45 0 22.5-22.5L270 180Zm0-45 22.5 22.5L315 180Zm45 0-22.5 22.5L315 225Zm0 45 22.5-22.5L315 180Zm0-45 22.5 22.5L360 180Zm45 0-22.5 22.5L360 225Zm0 45-22.5-22.5L315 225Zm-45 0 22.5 22.5L360 225Zm45 0-22.5 22.5L360 270Zm0 45-22.5-22.5L315 270Zm-45 0 22.5-22.5L315 225Zm0-45-22.5 22.5L315 270Zm0 45-22.5-22.5L270 270Zm-45 0 22.5 22.5L315 270Zm45 0-22.5 22.5L315 315Zm0 45 22.5-22.5L315 270Zm0-45 22.5 22.5L360 270Zm45 0-22.5 22.5L360 315Zm0 45-22.5-22.5L315 315Zm-45 0 22.5 22.5L360 315Zm45 0-22.5 22.5L360 360Zm0 45 22.5-22.5L360 315Zm0-45 22.5 22.5L405 315Zm45 0-22.5-22.5L360 315Zm-45 0 22.5-22.5L360 270Zm0-45 22.5 22.5L405 270Zm45 0-22.5 22.5L405 315Zm0 45 22.5-22.5L405 270Zm0-45 22.5 22.5L450 270Zm45 0-22.5-22.5L405 270Zm-45 0 22.5-22.5L405 225Zm0-45-22.5 22.5L405 270Zm0 45-22.5-22.5L360 270Zm-45 0 22.5-22.5L360 225Zm0-45 22.5 22.5L405 225Zm45 0-22.5-22.5L360 225Zm-45 0 22.5-22.5L360 180Zm0-45 22.5 22.5L405 180Zm45 0-22.5 22.5L405 225Zm0 45 22.5-22.5L405 180Zm0-45 22.5 22.5L450 180Zm45 0-22.5 22.5L450 225Zm0 45-22.5-22.5L405 225Zm-45 0 22.5 22.5L450 225Zm45 0-22.5 22.5L450 270Zm0 45 22.5-22.5L450 225Zm0-45 22.5 22.5L495 225Zm45 0-22.5-22.5L450 225Zm-45 0 22.5-22.5L450 180Zm0-45 22.5 22.5L495 180Zm45 0-22.5 22.5L495 225Zm0 45 22.5-22.5L495 180Zm0-45 22.5 22.5L540 180Zm45 0-22.5-22.5L495 180Zm-45 0 22.5-22.5L495 135Zm0-45-22.5 22.5L495 180Zm0 45-22.5-22.5L450 180Zm-45 0 22.5-22.5L450 135Zm0-45 22.5 22.5L495 135Zm45 0-22.5-22.5L450 135Zm-45 0 22.5-22.5L450 90Zm0-45-22.5 22.5L450 135Zm0 45-22.5-22.5L405 135Zm-45 0 22.5 22.5L450 135Zm45 0-22.5 22.5L450 180Zm0 45-22.5-22.5L405 180Zm-45 0 22.5-22.5L405 135Zm0-45-22.5 22.5L405 180Zm0 45-22.5-22.5L360 180Zm-45 0 22.5-22.5L360 135Zm0-45 22.5 22.5L405 135Zm45 0-22.5-22.5L360 135Zm-45 0 22.5-22.5L360 90Zm0-45 22.5 22.5L405 90Zm45 0-22.5 22.5L405 135Zm0 45 22.5-22.5L405 90Zm0-45 22.5 22.5L450 90Zm45 0-22.5-22.5L405 90Zm-45 0 22.5-22.5L405 45Zm0-45-22.5 22.5L405 90Zm0 45-22.5-22.5L360 90Zm-45 0 22.5-22.5L360 45Zm0-45 22.5 22.5L405 45Zm45 0-22.5-22.5L360 45Zm-45 0 22.5-22.5L360 0Zm0-45 22.5 22.5L405 0Zm45 0-22.5 22.5L405 45Zm0 45 22.5-22.5L405 0Zm0-45 22.5 22.5L450 0Zm45 0-22.5 22.5L450 45Zm0 45-22.5-22.5L405 45Zm-45 0 22.5 22.5L450 45Zm45 0-22.5 22.5L450 90Zm0 45 22.5-22.5L450 45Zm0-45 22.5 22.5L495 45Zm45 0-22.5-22.5L450 45Zm-45 0 22.5-22.5L450 0Zm0-45 22.5 22.5L495 0Zm45 0-22.5 22.5L495 45Zm0 45 22.5-22.5L495 0Zm0-45 22.5 22.5L540 0Zm45 0-22.5 22.5L540 45Zm0 45-22.5-22.5L495 45Zm-45 0 22.5 22.5L540 45Zm45 0-22.5 22.5L540 90Zm0 45-22.5-22.5L495 90Zm-45 0 22.5-22.5L495 45Zm0-45-22.5 22.5L495 90Zm0 45-22.5-22.5L450 90Zm-45 0 22.5 22.5L495 90Zm45 0-22.5 22.5L495 135Zm0 45 22.5-22.5L495 90Zm0-45 22.5 22.5L540 90Zm45 0-22.5 22.5L540 135Zm0 45-22.5-22.5L495 135Zm-45 0 22.5 22.5L540 135Zm45 0-22.5 22.5L540 180Zm0 45 22.5-22.5L540 135Zm0-45 22.5 22.5L585 135Zm45 0-22.5-22.5L540 135Zm-45 0 22.5-22.5L540 90Zm0-45 22.5 22.5L585 90Zm45 0-22.5 22.5L585 135Zm0 45 22.5-22.5L585 90Zm0-45 22.5 22.5L630 90Zm45 0-22.5-22.5L585 90Zm-45 0 22.5-22.5L585 45Zm0-45-22.5 22.5L585 90Zm0 45-22.5-22.5L540 90Zm-45 0 22.5-22.5L540 45Zm0-45 22.5 22.5L585 45Zm45 0-22.5-22.5L540 45Zm-45 0 22.5-22.5L540 0Zm0-45 22.5 22.5L585 0Zm45 0-22.5 22.5L585 45Zm0 45 22.5-22.5L585 0Zm0-45 22.5 22.5L630 0Zm45 0-22.5 22.5L630 45Zm0 45-22.5-22.5L585 45Zm-45 0 22.5 22.5L630 45Zm45 0-22.5 22.5L630 90Zm0 45 22.5-22.5L630 45Zm0-45 22.5 22.5L675 45Zm45 0-22.5-22.5L630 45Zm-45 0 22.5-22.5L630 0Zm0-45 22.5 22.5L675 0Zm45 0-22.5 22.5L675 45Zm0 45 22.5-22.5L675 0Zm0-45 22.5 22.5L720 0Zm45 0-22.5 22.5L720 45Zm0 45-22.5-22.5L675 45Zm-45 0 22.5 22.5L720 45Zm45 0-22.5 22.5L720 90Zm0 45-22.5-22.5L675 90Zm-45 0 22.5-22.5L675 45Zm0-45-22.5 22.5L675 90Zm0 45-22.5-22.5L630 90Zm-45 0 22.5 22.5L675 90Zm45 0-22.5 22.5L675 135Zm0 45 22.5-22.5L675 90Zm0-45 22.5 22.5L720 90Zm45 0-22.5 22.5L720 135Zm0 45-22.5-22.5L675 135Zm-45 0 22.5 22.5L720 135Zm45 0-22.5 22.5L720 180Zm0 45-22.5-22.5L675 180Zm-45 0 22.5-22.5L675 135Zm0-45-22.5 22.5L675 180Zm0 45-22.5-22.5L630 180Zm-45 0 22.5-22.5L630 135Zm0-45 22.5 22.5L675 135Zm45 0-22.5-22.5L630 135Zm-45 0 22.5-22.5L630 90Zm0-45-22.5 22.5L630 135Zm0 45-22.5-22.5L585 135Zm-45 0 22.5 22.5L630 135Zm45 0-22.5 22.5L630 180Zm0 45-22.5-22.5L585 180Zm-45 0 22.5-22.5L585 135Zm0-45-22.5 22.5L585 180Zm0 45-22.5-22.5L540 180Zm-45 0 22.5 22.5L585 180Zm45 0-22.5 22.5L585 225Zm0 45 22.5-22.5L585 180Zm0-45 22.5 22.5L630 180Zm45 0-22.5 22.5L630 225Zm0 45-22.5-22.5L585 225Zm-45 0 22.5 22.5L630 225Zm45 0-22.5 22.5L630 270Zm0 45 22.5-22.5L630 225Zm0-45 22.5 22.5L675 225Zm45 0-22.5-22.5L630 225Zm-45 0 22.5-22.5L630 180Zm0-45 22.5 22.5L675 180Zm45 0-22.5 22.5L675 225Zm0 45 22.5-22.5L675 180Zm0-45 22.5 22.5L720 180Zm45 0-22.5 22.5L720 225Zm0 45-22.5-22.5L675 225Zm-45 0 22.5 22.5L720 225Zm45 0-22.5 22.5L720 270Zm0 45-22.5-22.5L675 270Zm-45 0 22.5-22.5L675 225Zm0-45-22.5 22.5L675 270Zm0 45-22.5-22.5L630 270Zm-45 0 22.5 22.5L675 270Zm45 0-22.5 22.5L675 315Zm0 45 22.5-22.5L675 270Zm0-45 22.5 22.5L720 270Zm45 0-22.5 22.5L720 315Zm0 45-22.5-22.5L675 315Zm-45 0 22.5 22.5L720 315Zm45 0-22.5 22.5L720 360Zm0 45-22.5-22.5L675 360Zm-45 0 22.5-22.5L675 315Zm0-45-22.5 22.5L675 360Zm0 45-22.5-22.5L630 360Zm-45 0 22.5-22.5L630 315Zm0-45 22.5 22.5L675 315Zm45 0-22.5-22.5L630 315Zm-45 0 22.5-22.5L630 270Zm0-45-22.5 22.5L630 315Zm0 45-22.5-22.5L585 315Zm-45 0 22.5 22.5L630 315Zm45 0-22.5 22.5L630 360Zm0 45-22.5-22.5L585 360Zm-45 0 22.5-22.5L585 315Zm0-45-22.5 22.5L585 360Zm0 45-22.5-22.5L540 360Zm-45 0 22.5-22.5L540 315Zm0-45 22.5 22.5L585 315Zm45 0-22.5-22.5L540 315Zm-45 0 22.5-22.5L540 270Zm0-45 22.5 22.5L585 270Zm45 0-22.5 22.5L585 315Zm0 45 22.5-22.5L585 270Zm0-45 22.5 22.5L630 270Zm45 0-22.5-22.5L585 270Zm-45 0 22.5-22.5L585 225Zm0-45-22.5 22.5L585 270Zm0 45-22.5-22.5L540 270Zm-45 0 22.5-22.5L540 225Zm0-45 22.5 22.5L585 225Zm45 0-22.5-22.5L540 225Zm-45 0 22.5-22.5L540 180Zm0-45-22.5 22.5L540 225Zm0 45-22.5-22.5L495 225Zm-45 0 22.5 22.5L540 225Zm45 0-22.5 22.5L540 270Zm0 45-22.5-22.5L495 270Zm-45 0 22.5-22.5L495 225Zm0-45-22.5 22.5L495 270Zm0 45-22.5-22.5L450 270Zm-45 0 22.5 22.5L495 270Zm45 0-22.5 22.5L495 315Zm0 45 22.5-22.5L495 270Zm0-45 22.5 22.5L540 270Zm45 0-22.5 22.5L540 315Zm0 45-22.5-22.5L495 315Zm-45 0 22.5 22.5L540 315Zm45 0-22.5 22.5L540 360Zm0 45-22.5-22.5L495 360Zm-45 0 22.5-22.5L495 315Zm0-45-22.5 22.5L495 360Zm0 45-22.5-22.5L450 360Zm-45 0 22.5-22.5L450 315Zm0-45 22.5 22.5L495 315Zm45 0-22.5-22.5L450 315Zm-45 0 22.5-22.5L450 270Zm0-45-22.5 22.5L450 315Zm0 45-22.5-22.5L405 315Zm-45 0 22.5 22.5L450 315Zm45 0-22.5 22.5L450 360Zm0 45-22.5-22.5L405 360Zm-45 0 22.5-22.5L405 315Zm0-45-22.5 22.5L405 360Zm0 45-22.5-22.5L360 360Zm-45 0 22.5 22.5L405 360Zm45 0-22.5 22.5L405 405Zm0 45 22.5-22.5L405 360Zm0-45 22.5 22.5L450 360Zm45 0-22.5 22.5L450 405Zm0 45-22.5-22.5L405 405Zm-45 0 22.5 22.5L450 405Zm45 0-22.5 22.5L450 450Zm0 45 22.5-22.5L450 405Zm0-45 22.5 22.5L495 405Zm45 0-22.5-22.5L450 405Zm-45 0 22.5-22.5L450 360Zm0-45 22.5 22.5L495 360Zm45 0-22.5 22.5L495 405Zm0 45 22.5-22.5L495 360Zm0-45 22.5 22.5L540 360Zm45 0-22.5 22.5L540 405Zm0 45-22.5-22.5L495 405Zm-45 0 22.5 22.5L540 405Zm45 0-22.5 22.5L540 450Zm0 45-22.5-22.5L495 450Zm-45 0 22.5-22.5L495 405Zm0-45-22.5 22.5L495 450Zm0 45-22.5-22.5L450 450Zm-45 0 22.5 22.5L495 450Zm45 0-22.5 22.5L495 495Zm0 45 22.5-22.5L495 450Zm0-45 22.5 22.5L540 450Zm45 0-22.5 22.5L540 495Zm0 45-22.5-22.5L495 495Zm-45 0 22.5 22.5L540 495Zm45 0-22.5 22.5L540 540Zm0 45 22.5-22.5L540 495Zm0-45 22.5 22.5L585 495Zm45 0-22.5-22.5L540 495Zm-45 0 22.5-22.5L540 450Zm0-45 22.5 22.5L585 450Zm45 0-22.5 22.5L585 495Zm0 45 22.5-22.5L585 450Zm0-45 22.5 22.5L630 450Zm45 0-22.5-22.5L585 450Zm-45 0 22.5-22.5L585 405Zm0-45-22.5 22.5L585 450Zm0 45-22.5-22.5L540 450Zm-45 0 22.5-22.5L540 405Zm0-45 22.5 22.5L585 405Zm45 0-22.5-22.5L540 405Zm-45 0 22.5-22.5L540 360Zm0-45 22.5 22.5L585 360Zm45 0-22.5 22.5L585 405Zm0 45 22.5-22.5L585 360Zm0-45 22.5 22.5L630 360Zm45 0-22.5 22.5L630 405Zm0 45-22.5-22.5L585 405Zm-45 0 22.5 22.5L630 405Zm45 0-22.5 22.5L630 450Zm0 45 22.5-22.5L630 405Zm0-45 22.5 22.5L675 405Zm45 0-22.5-22.5L630 405Zm-45 0 22.5-22.5L630 360Zm0-45 22.5 22.5L675 360Zm45 0-22.5 22.5L675 405Zm0 45 22.5-22.5L675 360Zm0-45 22.5 22.5L720 360Zm45 0-22.5 22.5L720 405Zm0 45-22.5-22.5L675 405Zm-45 0 22.5 22.5L720 405Zm45 0-22.5 22.5L720 450Zm0 45-22.5-22.5L675 450Zm-45 0 22.5-22.5L675 405Zm0-45-22.5 22.5L675 450Zm0 45-22.5-22.5L630 450Zm-45 0 22.5 22.5L675 450Zm45 0-22.5 22.5L675 495Zm0 45 22.5-22.5L675 450Zm0-45 22.5 22.5L720 450Zm45 0-22.5 22.5L720 495Zm0 45-22.5-22.5L675 495Zm-45 0 22.5 22.5L720 495Zm45 0-22.5 22.5L720 540Zm0 45-22.5-22.5L675 540Zm-45 0 22.5-22.5L675 495Zm0-45-22.5 22.5L675 540Zm0 45-22.5-22.5L630 540Zm-45 0 22.5-22.5L630 495Zm0-45 22.5 22.5L675 495Zm45 0-22.5-22.5L630 495Zm-45 0 22.5-22.5L630 450Zm0-45-22.5 22.5L630 495Zm0 45-22.5-22.5L585 495Zm-45 0 22.5 22.5L630 495Zm45 0-22.5 22.5L630 540Zm0 45-22.5-22.5L585 540Zm-45 0 22.5-22.5L585 495Zm0-45-22.5 22.5L585 540Zm0 45-22.5-22.5L540 540Zm-45 0 22.5 22.5L585 540Zm45 0-22.5 22.5L585 585Zm0 45 22.5-22.5L585 540Zm0-45 22.5 22.5L630 540Zm45 0-22.5 22.5L630 585Zm0 45-22.5-22.5L585 585Zm-45 0 22.5 22.5L630 585Zm45 0-22.5 22.5L630 630Zm0 45 22.5-22.5L630 585Zm0-45 22.5 22.5L675 585Zm45 0-22.5-22.5L630 585Zm-45 0 22.5-22.5L630 540Zm0-45 22.5 22.5L675 540Zm45 0-22.5 22.5L675 585Zm0 45 22.5-22.5L675 540Zm0-45 22.5 22.5L720 540Zm45 0-22.5 22.5L720 585Zm0 45-22.5-22.5L675 585Zm-45 0 22.5 22.5L720 585Zm45 0-22.5 22.5L720 630Zm0 45-22.5-22.5L675 630Zm-45 0 22.5-22.5L675 585Zm0-45-22.5 22.5L675 630Zm0 45-22.5-22.5L630 630Zm-45 0 22.5 22.5L675 630Zm45 0-22.5 22.5L675 675Zm0 45 22.5-22.5L675 630Zm0-45 22.5 22.5L720 630Zm45 0-22.5 22.5L720 675Zm0 45-22.5-22.5L675 675Zm-45 0 22.5 22.5L720 675Zm45 0-22.5 22.5L720 720Zm0 45-22.5-22.5L675 720Zm-45 0 22.5-22.5L675 675Zm0-45-22.5 22.5L675 720Zm0 45-22.5-22.5L630 720Zm-45 0 22.5-22.5L630 675Zm0-45 22.5 22.5L675 675Zm45 0-22.5-22.5L630 675Zm-45 0 22.5-22.5L630 630Zm0-45-22.5 22.5L630 675Zm0 45-22.5-22.5L585 675Zm-45 0 22.5 22.5L630 675Zm45 0-22.5 22.5L630 720Zm0 45-22.5-22.5L585 720Zm-45 0 22.5-22.5L585 675Zm0-45-22.5 22.5L585 720Zm0 45-22.5-22.5L540 720Zm-45 0 22.5-22.5L540 675Zm0-45 22.5 22.5L585 675Zm45 0-22.5-22.5L540 675Zm-45 0 22.5-22.5L540 630Zm0-45 22.5 22.5L585 630Zm45 0-22.5 22.5L585 675Zm0 45 22.5-22.5L585 630Zm0-45 22.5 22.5L630 630Zm45 0-22.5-22.5L585 630Zm-45 0 22.5-22.5L585 585Zm0-45-22.5 22.5L585 630Zm0 45-22.5-22.5L540 630Zm-45 0 22.5-22.5L540 585Zm0-45 22.5 22.5L585 585Zm45 0-22.5-22.5L540 585Zm-45 0 22.5-22.5L540 540Zm0-45-22.5 22.5L540 585Zm0 45-22.5-22.5L495 585Zm-45 0 22.5 22.5L540 585Zm45 0-22.5 22.5L540 630Zm0 45-22.5-22.5L495 630Zm-45 0 22.5-22.5L495 585Zm0-45-22.5 22.5L495 630Zm0 45-22.5-22.5L450 630Zm-45 0 22.5 22.5L495 630Zm45 0-22.5 22.5L495 675Zm0 45 22.5-22.5L495 630Zm0-45 22.5 22.5L540 630Zm45 0-22.5 22.5L540 675Zm0 45-22.5-22.5L495 675Zm-45 0 22.5 22.5L540 675Zm45 0-22.5 22.5L540 720Zm0 45-22.5-22.5L495 720Zm-45 0 22.5-22.5L495 675Zm0-45-22.5 22.5L495 720Zm0 45-22.5-22.5L450 720Zm-45 0 22.5-22.5L450 675Zm0-45 22.5 22.5L495 675Zm45 0-22.5-22.5L450 675Zm-45 0 22.5-22.5L450 630Zm0-45-22.5 22.5L450 675Zm0 45-22.5-22.5L405 675Zm-45 0 22.5 22.5L450 675Zm45 0-22.5 22.5L450 720Zm0 45-22.5-22.5L405 720Zm-45 0 22.5-22.5L405 675Zm0-45-22.5 22.5L405 720Zm0 45-22.5-22.5L360 720Zm-45 0 22.5-22.5L360 675Zm0-45 22.5 22.5L405 675Zm45 0-22.5-22.5L360 675Zm-45 0 22.5-22.5L360 630Zm0-45 22.5 22.5L405 630Zm45 0-22.5 22.5L405 675Zm0 45 22.5-22.5L405 630Zm0-45 22.5 22.5L450 630Zm45 0-22.5-22.5L405 630Zm-45 0 22.5-22.5L405 585Zm0-45-22.5 22.5L405 630Zm0 45-22.5-22.5L360 630Zm-45 0 22.5-22.5L360 585Zm0-45 22.5 22.5L405 585Zm45 0-22.5-22.5L360 585Zm-45 0 22.5-22.5L360 540Zm0-45 22.5 22.5L405 540Zm45 0-22.5 22.5L405 585Zm0 45 22.5-22.5L405 540Zm0-45 22.5 22.5L450 540Zm45 0-22.5 22.5L450 585Zm0 45-22.5-22.5L405 585Zm-45 0 22.5 22.5L450 585Zm45 0-22.5 22.5L450 630Zm0 45 22.5-22.5L450 585Zm0-45 22.5 22.5L495 585Zm45 0-22.5-22.5L450 585Zm-45 0 22.5-22.5L450 540Zm0-45 22.5 22.5L495 540Zm45 0-22.5 22.5L495 585Zm0 45 22.5-22.5L495 540Zm0-45 22.5 22.5L540 540Zm45 0-22.5-22.5L495 540Zm-45 0 22.5-22.5L495 495Zm0-45-22.5 22.5L495 540Zm0 45-22.5-22.5L450 540Zm-45 0 22.5-22.5L450 495Zm0-45 22.5 22.5L495 495Zm45 0-22.5-22.5L450 495Zm-45 0 22.5-22.5L450 450Zm0-45-22.5 22.5L450 495Zm0 45-22.5-22.5L405 495Zm-45 0 22.5 22.5L450 495Zm45 0-22.5 22.5L450 540Zm0 45-22.5-22.5L405 540Zm-45 0 22.5-22.5L405 495Zm0-45-22.5 22.5L405 540Zm0 45-22.5-22.5L360 540Zm-45 0 22.5-22.5L360 495Zm0-45 22.5 22.5L405 495Zm45 0-22.5-22.5L360 495Zm-45 0 22.5-22.5L360 450Zm0-45 22.5 22.5L405 450Zm45 0-22.5 22.5L405 495Zm0 45 22.5-22.5L405 450Zm0-45 22.5 22.5L450 450Zm45 0-22.5-22.5L405 450Zm-45 0 22.5-22.5L405 405Zm0-45-22.5 22.5L405 450Zm0 45-22.5-22.5L360 450Zm-45 0 22.5-22.5L360 405Zm0-45 22.5 22.5L405 405Zm45 0-22.5-22.5L360 405Zm-45 0 22.5-22.5L360 360Zm0-45-22.5 22.5L360 405Zm0 45-22.5-22.5L315 405Zm-45 0 22.5 22.5L360 405Zm45 0-22.5 22.5L360 450Zm0 45-22.5-22.5L315 450Zm-45 0 22.5-22.5L315 405Zm0-45-22.5 22.5L315 450Zm0 45-22.5-22.5L270 450Zm-45 0 22.5 22.5L315 450Zm45 0-22.5 22.5L315 495Zm0 45 22.5-22.5L315 450Zm0-45 22.5 22.5L360 450Zm45 0-22.5 22.5L360 495Zm0 45-22.5-22.5L315 495Zm-45 0 22.5 22.5L360 495Zm45 0-22.5 22.5L360 540Zm0 45-22.5-22.5L315 540Zm-45 0 22.5-22.5L315 495Zm0-45-22.5 22.5L315 540Zm0 45-22.5-22.5L270 540Zm-45 0 22.5-22.5L270 495Zm0-45 22.5 22.5L315 495Zm45 0-22.5-22.5L270 495Zm-45 0 22.5-22.5L270 450Zm0-45-22.5 22.5L270 495Zm0 45-22.5-22.5L225 495Zm-45 0 22.5 22.5L270 495Zm45 0-22.5 22.5L270 540Zm0 45-22.5-22.5L225 540Zm-45 0 22.5-22.5L225 495Zm0-45-22.5 22.5L225 540Zm0 45-22.5-22.5L180 540Zm-45 0 22.5 22.5L225 540Zm45 0-22.5 22.5L225 585Zm0 45 22.5-22.5L225 540Zm0-45 22.5 22.5L270 540Zm45 0-22.5 22.5L270 585Zm0 45-22.5-22.5L225 585Zm-45 0 22.5 22.5L270 585Zm45 0-22.5 22.5L270 630Zm0 45 22.5-22.5L270 585Zm0-45 22.5 22.5L315 585Zm45 0-22.5-22.5L270 585Zm-45 0 22.5-22.5L270 540Zm0-45 22.5 22.5L315 540Zm45 0-22.5 22.5L315 585Zm0 45 22.5-22.5L315 540Zm0-45 22.5 22.5L360 540Zm45 0-22.5 22.5L360 585Zm0 45-22.5-22.5L315 585Zm-45 0 22.5 22.5L360 585Zm45 0-22.5 22.5L360 630Zm0 45-22.5-22.5L315 630Zm-45 0 22.5-22.5L315 585Zm0-45-22.5 22.5L315 630Zm0 45-22.5-22.5L270 630Zm-45 0 22.5 22.5L315 630Zm45 0-22.5 22.5L315 675Zm0 45 22.5-22.5L315 630Zm0-45 22.5 22.5L360 630Zm45 0-22.5 22.5L360 675Zm0 45-22.5-22.5L315 675Zm-45 0 22.5 22.5L360 675Zm45 0-22.5 22.5L360 720Zm0 45-22.5-22.5L315 720Zm-45 0 22.5-22.5L315 675Zm0-45-22.5 22.5L315 720Zm0 45-22.5-22.5L270 720Zm-45 0 22.5-22.5L270 675Zm0-45 22.5 22.5L315 675Zm45 0-22.5-22.5L270 675Zm-45 0 22.5-22.5L270 630Zm0-45-22.5 22.5L270 675Zm0 45-22.5-22.5L225 675Zm-45 0 22.5 22.5L270 675Zm45 0-22.5 22.5L270 720Zm0 45-22.5-22.5L225 720Zm-45 0 22.5-22.5L225 675Zm0-45-22.5 22.5L225 720Zm0 45-22.5-22.5L180 720Zm-45 0 22.5-22.5L180 675Zm0-45 22.5 22.5L225 675Zm45 0-22.5-22.5L180 675Zm-45 0 22.5-22.5L180 630Zm0-45 22.5 22.5L225 630Zm45 0-22.5 22.5L225 675Zm0 45 22.5-22.5L225 630Zm0-45 22.5 22.5L270 630Zm45 0-22.5-22.5L225 630Zm-45 0 22.5-22.5L225 585Zm0-45-22.5 22.5L225 630Zm0 45-22.5-22.5L180 630Zm-45 0 22.5-22.5L180 585Zm0-45 22.5 22.5L225 585Zm45 0-22.5-22.5L180 585Zm-45 0 22.5-22.5L180 540Zm0-45-22.5 22.5L180 585Zm0 45-22.5-22.5L135 585Zm-45 0 22.5 22.5L180 585Zm45 0-22.5 22.5L180 630Zm0 45-22.5-22.5L135 630Zm-45 0 22.5-22.5L135 585Zm0-45-22.5 22.5L135 630Zm0 45-22.5-22.5L90 630Zm-45 0 22.5 22.5L135 630Zm45 0-22.5 22.5L135 675Zm0 45 22.5-22.5L135 630Zm0-45 22.5 22.5L180 630Zm45 0-22.5 22.5L180 675Zm0 45-22.5-22.5L135 675Zm-45 0 22.5 22.5L180 675Zm45 0-22.5 22.5L180 720Zm0 45-22.5-22.5L135 720Zm-45 0 22.5-22.5L135 675Zm0-45-22.5 22.5L135 720Zm0 45-22.5-22.5L90 720Zm-45 0 22.5-22.5L90 675Zm0-45 22.5 22.5L135 675Zm45 0-22.5-22.5L90 675Zm-45 0 22.5-22.5L90 630Zm0-45-22.5 22.5L90 675Zm0 45-22.5-22.5L45 675Zm-45 0 22.5 22.5L90 675Zm45 0-22.5 22.5L90 720Zm0 45-22.5-22.5L45 720Zm-45 0 22.5-22.5L45 675Zm0-45-22.5 22.5L45 720Zm0 45-22.5-22.5L0 720Z" style="fill:none;stroke:#d75886;stroke-width:1px"/>

<path d="m7.5 697.5 15-15v-15l-15-15 15-15 15 15h15l15-15v-15l-15-15h-15l-15 15-15-15 15-15v-15l-15-15 15-15 15 15h15l15-15 15 15-15 15v15l15 15h15l15-15v-15l-15-15 15-15 15 15h15l15-15v-15l-15-15h-15l-15 15-15-15 15-15v-15l-15-15h-15l-15 15v15l15 15-15 15-15-15h-15l-15 15-15-15 15-15v-15l-15-15 15-15 15 15h15l15-15v-15l-15-15h-15l-15 15-15-15 15-15v-15l-15-15 15-15 15 15h15l15-15 15 15-15 15v15l15 15h15l15-15v-15l-15-15 15-15 15 15h15l15-15 15 15-15 15v15l15 15-15 15-15-15h-15l-15 15v15l15 15h15l15-15 15 15-15 15v15l15 15h15l15-15v-15l-15-15 15-15 15 15h15l15-15v-15l-15-15h-15l-15 15-15-15 15-15v-15l-15-15 15-15 15 15h15l15-15 15 15-15 15v15l15 15h15l15-15v-15l-15-15 15-15 15 15h15l15-15v-15l-15-15h-15l-15 15-15-15 15-15v-15l-15-15h-15l-15 15v15l15 15-15 15-15-15h-15l-15 15-15-15 15-15v-15l-15-15 15-15 15 15h15l15-15v-15l-15-15h-15l-15 15-15-15 15-15v-15l-15-15h-15l-15 15v15l15 15-15 15-15-15h-15l-15 15v15l15 15h15l15-15 15 15-15 15v15l15 15-15 15-15-15h-15l-15 15-15-15 15-15v-15l-15-15h-15l-15 15v15l15 15-15 15-15-15h-15l-15 15-15-15 15-15v-15l-15-15 15-15 15 15h15l15-15v-15l-15-15h-15l-15 15-15-15 15-15v-15l-15-15 15-15 15 15h15l15-15 15 15-15 15v15l15 15h15l15-15v-15l-15-15 15-15 15 15h15l15-15v-15l-15-15h-15l-15 15-15-15 15-15v-15l-15-15h-15l-15 15v15l15 15-15 15-15-15h-15l-15 15-15-15 15-15v-15l-15-15 15-15 15 15h15l15-15v-15l-15-15h-15l-15 15-15-15 15-15v-15l-15-15 15-15 15 15h15l15-15 15 15-15 15v15l15 15h15l15-15v-15l-15-15 15-15 15 15h15l15-15 15 15-15 15v15l15 15-15 15-15-15h-15l-15 15v15l15 15h15l15-15 15 15-15 15v15l15 15h15l15-15v-15l-15-15 15-15 15 15h15l15-15v-15l-15-15h-15l-15 15-15-15 15-15v-15l-15-15 15-15 15 15h15l15-15 15 15-15 15v15l15 15h15l15-15v-15l-15-15 15-15 15 15h15l15-15 15 15-15 15v15l15 15-15 15-15-15h-15l-15 15v15l15 15h15l15-15 15 15-15 15v15l15 15-15 15-15-15h-15l-15 15-15-15 15-15v-15l-15-15h-15l-15 15v15l15 15-15 15-15-15h-15l-15 15v15l15 15h15l15-15 15 15-15 15v15l15 15h15l15-15v-15l-15-15 15-15 15 15h15l15-15 15 15-15 15v15l15 15-15 15-15-15h-15l-15 15v15l15 15h15l15-15 15 15-15 15v15l15 15h15l15-15v-15l-15-15 15-15 15 15h15l15-15v-15l-15-15h-15l-15 15-15-15 15-15v-15l-15-15 15-15 15 15h15l15-15 15 15-15 15v15l15 15h15l15-15v-15l-15-15 15-15 15 15h15l15-15v-15l-15-15h-15l-15 15-15-15 15-15v-15l-15-15h-15l-15 15v15l15 15-15 15-15-15h-15l-15 15-15-15 15-15v-15l-15-15 15-15 15 15h15l15-15v-15l-15-15h-15l-15 15-15-15 15-15v-15l-15-15 15-15 15 15h15l15-15 15 15-15 15v15l15 15h15l15-15v-15l-15-15 15-15 15 15h15l15-15 15 15-15 15v15l15 15-15 15-15-15h-15l-15 15v15l15 15h15l15-15 15 15-15 15v15l15 15h15l15-15v-15l-15-15 15-15 15 15h15l15-15v-15l-15-15h-15l-15 15-15-15 15-15v-15l-15-15 15-15 15 15h15l15-15 15 15-15 15v15l15 15h15l15-15v-15l-15-15 15-15 15 15h15l15-15 15 15-15 15v15l15 15-15 15-15-15h-15l-15 15v15l15 15h15l15-15 15 15-15 15v15l15 15-15 15-15-15h-15l-15 15-15-15 15-15v-15l-15-15h-15l-15 15v15l15 15-15 15-15-15h-15l-15 15v15l15 15h15l15-15 15 15-15 15v15l15 15h15l15-15v-15l-15-15 15-15 15 15h15l15-15 15 15-15 15v15l15 15-15 15-15-15h-15l-15 15v15l15 15h15l15-15 15 15-15 15v15l15 15-15 15-15-15h-15l-15 15-15-15 15-15v-15l-15-15h-15l-15 15v15l15 15-15 15-15-15h-15l-15 15-15-15 15-15v-15l-15-15 15-15 15 15h15l15-15v-15l-15-15h-15l-15 15-15-15 15-15v-15l-15-15h-15l-15 15v15l15 15-15 15-15-15h-15l-15 15v15l15 15h15l15-15 15 15-15 15v15l15 15-15 15-15-15h-15l-15 15-15-15 15-15v-15l-15-15h-15l-15 15v15l15 15-15 15-15-15h-15l-15 15v15l15 15h15l15-15 15 15-15 15v15l15 15h15l15-15v-15l-15-15 15-15 15 15h15l15-15 15 15-15 15v15l15 15-15 15-15-15h-15l-15 15v15l15 15h15l15-15 15 15-15 15v15l15 15h15l15-15v-15l-15-15 15-15 15 15h15l15-15v-15l-15-15h-15l-15 15-15-15 15-15v-15l-15-15 15-15 15 15h15l15-15 15 15-15 15v15l15 15h15l15-15v-15l-15-15 15-15 15 15h15l15-15 15 15-15 15v15l15 15-15 15-15-15h-15l-15 15v15l15 15h15l15-15 15 15-15 15v15l15 15-15 15-15-15h-15l-15 15-15-15 15-15v-15l-15-15h-15l-15 15v15l15 15-15 15-15-15h-15l-15 15v15l15 15h15l15-15 15 15-15 15v15l15 15h15l15-15v-15l-15-15 15-15 15 15h15l15-15 15 15-15 15v15l15 15-15 15-15-15h-15l-15 15v15l15 15h15l15-15 15 15-15 15v15l15 15-15 15-15-15h-15l-15 15-15-15 15-15v-15l-15-15h-15l-15 15v15l15 15-15 15-15-15h-15l-15 15-15-15 15-15v-15l-15-15 15-15 15 15h15l15-15v-15l-15-15h-15l-15 15-15-15 15-15v-15l-15-15h-15l-15 15v15l15 15-15 15-15-15h-15l-15 15v15l15 15h15l15-15 15 15-15 15v15l15 15-15 15-15-15h-15l-15 15-15-15 15-15v-15l-15-15h-15l-15 15v15l15 15-15 15-15-15h-15l-15 15-15-15 15-15v-15l-15-15 15-15 15 15h15l15-15v-15l-15-15h-15l-15 15-15-15 15-15v-15l-15-15 15-15 15 15h15l15-15 15 15-15 15v15l15 15h15l15-15v-15l-15-15 15-15 15 15h15l15-15v-15l-15-15h-15l-15 15-15-15 15-15v-15l-15-15h-15l-15 15v15l15 15-15 15-15-15h-15l-15 15-15-15 15-15v-15l-15-15 15-15 15 15h15l15-15v-15l-15-15h-15l-15 15-15-15 15-15v-15l-15-15h-15l-15 15v15l15 15-15 15-15-15h-15l-15 15v15l15 15h15l15-15 15 15-15 15v15l15 15-15 15-15-15h-15l-15 15-15-15 15-15v-15l-15-15h-15l-15 15v15l15 15-15 15-15-15h-15l-15 15v15l15 15h15l15-15 15 15-15 15v15l15 15h15l15-15v-15l-15-15 15-15 15 15h15l15-15 15 15-15 15v15l15 15-15 15-15-15h-15l-15 15v15l15 15h15l15-15 15 15-15 15v15l15 15-15 15-15-15h-15l-15 15-15-15 15-15v-15l-15-15h-15l-15 15v15l15 15-15 15-15-15h-15l-15 15-15-15 15-15v-15l-15-15 15-15 15 15h15l15-15v-15l-15-15h-15l-15 15-15-15 15-15v-15l-15-15h-15l-15 15v15l15 15-15 15-15-15h-15l-15 15v15l15 15h15l15-15 15 15-15 15v15l15 15-15 15-15-15h-15l-15 15-15-15 15-15v-15l-15-15h-15l-15 15v15l15 15-15 15-15-15h-15l-15 15Z" style="fill:none;stroke:#fb8bc0;stroke-width:4px"/></svg>