<svg xmlns="http://www.w3.org/2000/svg" width="748.373" height="740.754" viewBox="0 0 561.28 555.566">Scratch 2022-02 - Component A<path d="M561.28 274.955c-.27 58.005-18.963 115.62-52.614 162.583-33.49 47.084-81.76 83.281-136.1 102.226-54.28 19.135-114.35 20.926-169.468 5.185-55.177-15.55-105.123-48.545-140.98-92.976C26.104 407.663 4.356 352.148.64 295.4c-3.914-56.738 10.217-114.418 39.738-162.76 29.354-48.447 73.943-87.312 125.707-109.746C217.774.28 276.372-5.796 331.388 5.624c55.06 11.23 106.26 39.89 144.508 80.742 38.393 40.72 63.647 93.42 71.363 148.62 7.908 55.176-1.752 112.57-27.126 161.941-25.203 49.463-65.984 90.654-114.957 116.303-48.887 25.82-105.714 35.972-160.298 28.77-54.612-7.011-106.703-31.333-147.016-68.498-40.444-37.027-68.909-86.703-80.418-140.08-11.696-53.339-6.386-110.107 14.852-160.165C53.361 123.122 90.237 79.95 136.233 51.372c45.899-28.74 100.68-42.743 154.513-39.633 53.848 2.921 106.477 22.933 148.522 56.333 42.164 33.256 73.536 79.725 88.614 131.026 15.257 51.251 14.152 107.07-2.989 157.48-16.965 50.473-49.872 95.281-92.73 126.491-42.751 31.361-95.232 48.971-148.016 49.805-52.785 1.018-105.605-14.738-149.052-44.323-43.554-29.437-77.518-72.547-95.923-121.542-18.577-48.933-21.508-103.5-8.4-153.935 12.934-50.485 41.833-96.584 81.42-130.123 39.472-33.68 89.425-54.636 140.878-59.241 51.44-4.785 104.115 6.796 148.637 32.545 44.614 25.596 80.85 65.223 102.328 111.706 21.64 46.411 28.418 99.44 19.251 149.587-8.993 50.182-33.877 97.23-70.086 132.791-36.088 35.69-83.313 59.718-133.17 67.904-49.833 8.361-102.043.845-147.315-21.073-45.352-21.761-83.537-57.808-107.819-101.599-24.435-43.708-34.85-94.935-29.51-144.494 5.168-49.58 26.056-97.241 58.81-134.514 32.626-37.389 76.946-64.204 124.967-75.762 47.984-11.727 99.422-8.145 145.128 9.974 45.772 17.96 85.58 50.36 112.39 91.302 26.953 40.852 40.778 90.035 39.128 138.72-1.48 48.694-18.42 96.642-47.667 135.314-29.114 38.776-70.38 68.085-116.345 82.791-45.916 14.868-96.294 15.065-142.124.689-45.885-14.218-86.991-42.93-116.045-80.896-29.187-37.866-46.18-84.788-48.062-132.33-2.048-47.54 11.016-95.458 36.731-135.22 25.579-39.856 63.67-71.357 107.38-88.974 43.653-17.77 92.698-21.57 138.358-10.855 45.7 10.558 87.783 35.572 118.791 70.456 31.132 34.778 51.037 79.245 56.275 125.396 5.4 46.136-3.888 93.72-26.072 134.268-22.045 40.63-56.868 74.02-98.15 94.296-41.217 20.422-88.68 27.633-133.883 20.473-45.232-7.003-87.976-28.333-120.648-60.06-32.784-31.614-55.335-73.458-63.734-117.986-8.556-44.503-2.925-91.463 15.756-132.5 18.538-41.103 50.025-76.077 88.732-98.755 38.631-22.814 84.282-33.223 128.76-29.493 44.495 3.575 87.592 21.263 121.634 49.779 34.144 28.4 59.065 67.478 70.418 110.176 11.502 42.662 9.385 88.724-5.843 129.957-15.085 41.289-43.196 77.541-79.202 102.354-35.923 24.94-79.555 38.322-123.054 37.876-43.504-.294-86.655-14.406-121.778-39.687-35.214-25.16-62.225-61.355-76.308-102.035-14.225-40.634-15.459-85.543-3.61-126.693 11.707-41.195 36.428-78.423 69.635-105.1 33.116-26.796 74.544-42.91 116.829-45.584 42.278-2.822 85.197 7.803 121.114 29.847 35.997 21.921 64.812 55.144 81.392 93.64 16.715 38.443 21.118 81.962 12.551 122.761-8.425 40.833-29.769 78.74-60.101 107.009-30.237 28.376-69.302 46.975-110.154 52.588-40.836 5.756-83.25-1.495-119.68-20.326-36.499-18.706-66.832-48.89-85.666-85.064C83.076 332.8 75.7 290.887 81.102 250.692c5.262-40.217 23.266-78.514 50.674-108.1 27.308-29.682 63.875-50.507 103.098-58.865 39.197-8.494 80.848-4.485 117.52 11.18 36.728 15.539 68.292 42.647 89.132 76.379 20.96 33.661 31.097 73.77 28.724 113.122-2.235 39.364-16.96 77.771-41.42 108.4-24.354 30.718-58.312 53.506-95.73 64.398-37.382 11.025-78.03 10.105-114.68-2.463-36.695-12.44-69.207-36.46-91.8-67.655-22.702-31.12-35.376-69.254-35.88-107.541-.636-38.29 10.894-76.537 32.402-107.942 21.401-31.482 52.666-55.966 88.123-69.176 35.414-13.335 74.836-15.335 111.212-5.775 36.412 9.435 69.594 30.375 93.682 58.965 24.189 28.509 39.167 64.517 42.376 101.536 3.339 37.012-5.1 74.844-23.68 106.761-18.47 31.985-46.981 57.896-80.345 73.196-33.314 15.418-71.308 20.154-107.173 13.49-35.89-6.538-69.47-24.435-94.797-50.373-25.418-25.852-42.459-59.61-48.19-95.175-5.858-35.55-.384-72.726 15.311-104.9 15.585-32.233 41.306-59.302 72.467-76.458 31.105-17.267 67.488-24.54 102.618-20.646 35.148 3.772 68.864 18.682 95.172 41.946 26.393 23.174 45.249 54.577 53.308 88.525 8.18 33.924 5.528 70.22-7.348 102.405-12.766 32.234-35.685 60.196-64.556 78.97-28.81 18.878-63.421 28.477-97.61 27.208-34.197-1.15-67.798-13.154-94.838-33.743-27.115-20.496-47.535-49.466-57.717-81.654-10.295-32.155-10.306-67.362-.163-99.324 10.033-32 30.161-60.596 56.68-80.748 26.45-20.247 59.15-31.953 92.209-33.15 33.057-1.31 66.304 7.887 93.83 25.823 27.59 17.842 49.323 44.324 61.414 74.628 12.197 30.265 14.697 64.195 7.182 95.711-7.405 31.547-24.779 60.521-48.902 81.81-24.051 21.376-54.724 34.962-86.48 38.45-31.748 3.6-64.416-2.91-92.188-18.237-27.828-15.232-50.623-39.195-64.402-67.515-13.88-28.274-18.68-60.758-13.673-91.622 4.9-30.884 19.576-59.993 41.284-82.18 21.635-22.265 50.186-37.5 80.488-43.095 30.286-5.702 62.167-1.744 89.956 11.037 27.837 12.686 51.445 34.123 66.69 60.379 15.337 26.206 22.24 57.095 19.603 87.114-2.534 30.032-14.588 59.041-33.886 81.89-19.22 22.92-45.58 39.567-74.296 47.076-28.693 7.61-59.594 6.051-87.182-4.267-27.628-10.224-51.805-29.148-68.29-53.284-16.57-24.082-25.369-53.25-24.948-82.248.32-29.004 9.849-57.692 26.76-80.973 16.83-23.344 40.952-41.168 67.97-50.39 26.99-9.316 56.737-9.991 83.918-2.034 27.213 7.863 51.723 24.31 69.22 46.292 17.578 21.924 28.058 49.264 29.691 77.085 1.73 27.82-5.39 55.977-19.958 79.469-14.488 23.546-36.344 42.31-61.574 53.038-25.196 10.816-53.635 13.546-80.217 7.833-26.606-5.62-51.222-19.65-69.51-39.462-18.359-19.752-30.303-45.182-33.813-71.687-3.604-26.496 1.237-53.93 13.526-77.42 12.209-23.535 31.798-43.008 55.17-55.03 23.335-12.104 50.33-16.703 76.137-13.101 25.822 3.511 50.326 15.197 69.183 32.85 18.922 17.587 32.107 41.046 37.312 66.115 5.293 25.054 2.585 51.59-7.507 74.873-10.013 23.322-27.353 43.277-48.82 56.381-21.424 13.181-46.862 19.45-71.732 17.815-24.88-1.55-49.065-10.988-68.279-26.506-19.27-15.453-33.474-36.9-40.182-60.434-6.79-23.514-6.057-48.991 1.938-71.88 7.916-22.919 23.047-43.134 42.58-57.109 19.489-14.044 43.275-21.783 67.066-21.955 23.793-.256 47.47 7.048 66.831 20.48 19.412 13.366 34.415 32.785 42.43 54.703 8.093 21.895 9.163 46.174 3.15 68.49-5.935 22.34-18.916 42.604-36.51 57.24-17.545 14.698-39.609 23.699-62.195 25.512-22.583 1.892-45.572-3.405-64.885-14.816-19.356-11.345-34.94-28.74-44.063-48.984-9.195-20.216-11.89-43.176-7.73-64.758 4.084-21.6 14.993-41.712 30.66-56.802 15.617-15.148 35.907-25.2 57.181-28.479 21.267-3.352 43.41.08 62.486 9.552 19.113 9.408 35.066 24.802 45.097 43.334 10.098 18.5 14.228 40.04 11.78 60.743-2.375 20.714-11.308 40.485-25.08 55.83-13.722 15.396-32.208 26.293-52.085 30.854-19.864 4.63-41.015 2.91-59.68-4.725-18.696-7.57-34.814-21.008-45.553-37.81-10.8-16.766-16.173-36.805-15.286-56.499.82-19.7 7.888-38.954 19.819-54.362 11.878-15.452 28.552-26.985 46.963-32.642 18.394-5.723 38.43-5.548 56.523.362 18.117 5.848 34.202 17.393 45.453 32.464 11.305 15.035 17.725 33.514 18.235 52.087.575 18.576-4.756 37.152-14.913 52.44-10.105 15.326-24.978 27.29-41.876 33.855-16.878 6.625-35.69 7.823-53.065 3.51-17.392-4.252-33.259-13.986-44.828-27.348-11.62-13.324-18.887-30.203-20.625-47.565-1.8-17.359 1.934-35.11 10.402-50.106 8.419-15.028 21.523-27.227 36.879-34.51 15.333-7.337 32.837-9.727 49.361-6.873 16.537 2.798 32.012 10.819 43.714 22.51 11.745 11.654 19.664 26.914 22.456 42.99 2.848 16.068.561 32.868-6.32 47.411-6.833 14.57-18.219 26.813-32.025 34.624-13.782 7.861-29.909 11.259-45.468 9.713-15.569-1.492-30.49-7.912-42.147-17.991-11.694-10.041-20.067-23.684-23.733-38.418-3.719-14.724-2.718-30.463 2.691-44.407 5.363-13.966 15.1-26.069 27.366-34.224 12.241-8.2 26.945-12.417 41.443-12.022 14.503.345 28.727 5.292 40.168 13.833 11.473 8.502 20.11 20.549 24.47 33.906 4.409 13.345 4.525 27.93.46 41.142-4.02 13.23-12.194 25.024-22.95 33.342-10.73 8.358-23.984 13.205-37.342 13.796-13.36.638-26.755-2.976-37.823-10.067-11.095-7.055-19.81-17.545-24.683-29.509-4.917-11.95-5.976-25.308-3.116-37.674 2.817-12.378 9.53-23.702 18.823-32.01 9.267-8.342 21.062-13.63 33.22-15.039 12.156-1.45 24.61.98 35.159 6.727 10.572 5.712 19.186 14.705 24.394 25.277 5.247 10.558 7.068 22.637 5.267 34.055-1.762 11.428-7.13 22.137-15.025 30.268-7.869 8.16-18.219 13.706-29.134 15.758-10.912 2.091-22.33.686-32.227-3.835-9.916-4.487-18.261-12.058-23.629-21.26-5.402-9.188-7.804-19.955-6.906-30.343 1.533-20.958 17.272-39.276 36.731-44.123 9.645-2.557 19.951-2.01 29.079 1.412 9.142 3.392 17.061 9.635 22.418 17.507 5.386 7.856 8.19 17.296 8.031 26.59-.125 9.297-3.204 18.401-8.558 25.72-5.33 7.341-12.905 12.864-21.285 15.684-8.374 2.85-17.51 2.99-25.766.525-16.707-4.749-28.801-20.512-29.446-36.908-1.056-16.425 9.182-32.19 23.574-37.94 14.289-6.128 31.525-1.982 41.151 8.978 9.93 10.752 11.65 27.32 4.974 39.257-6.398 12.143-20.486 18.816-33.068 16.652-12.68-1.856-22.897-12.172-24.887-23.86-2.292-11.682 3.593-23.776 13.162-29.09 9.475-5.578 21.774-4.138 29.276 2.53 7.704 6.507 10.155 17.554 6.68 25.994-3.278 8.57-12.008 13.94-20.214 13.479-8.264-.256-15.355-6.093-17.346-13.128-2.184-7.028.688-14.625 5.958-18.266 5.213-3.803 12.27-3.527 16.674-.232 4.528 3.208 6.163 8.987 4.69 13.343-1.373 4.44-5.524 7.15-9.226 7.064-3.75.015-6.72-2.546-7.426-5.273-.8-2.75.532-5.34 2.274-6.225 1.75-.967 3.604-.3 4.17.724.638 1.026.016 2.12-.746 2.086" fill="none" stroke="#000" stroke-width=".028"/></svg>